<svg width="24" height="24" viewBox="0 0 24 24" fill="none" xmlns="http://www.w3.org/2000/svg">
<path d="M12 22C17.5229 22 22 17.5229 22 12C22 6.47715 17.5229 2 12 2C6.47715 2 2 6.47715 2 12C2 17.5229 6.47715 22 12 22Z" fill="url(#paint0_linear_606_112)" stroke="url(#paint1_linear_606_112)" stroke-width="1.5" stroke-linejoin="round"/>
<path d="M14.8284 11.2933L12.7071 9.17195C12.3166 8.78143 11.6834 8.78143 11.2929 9.17195L9.17157 11.2933C8.78105 11.6838 8.78105 12.317 9.17157 12.7075L11.2929 14.8288C11.6834 15.2193 12.3166 15.2193 12.7071 14.8288L14.8284 12.7075C15.219 12.317 15.219 11.6838 14.8284 11.2933Z" fill="white" stroke="white" stroke-width="1.5" stroke-linejoin="round"/>
<defs>
<linearGradient id="paint0_linear_606_112" x1="12" y1="2" x2="12" y2="22" gradientUnits="userSpaceOnUse">
<stop stop-color="#CCCCCC"/>
<stop offset="1" stop-color="#191919"/>
</linearGradient>
<linearGradient id="paint1_linear_606_112" x1="12" y1="2" x2="12" y2="22" gradientUnits="userSpaceOnUse">
<stop stop-color="#CCCCCC"/>
<stop offset="1" stop-color="#191919"/>
</linearGradient>
</defs>
</svg>
