<svg xmlns="http://www.w3.org/2000/svg" xmlns:xlink="http://www.w3.org/1999/xlink" fill="none" version="1.1" width="24" height="24" viewBox="0 0 24 24"><defs><clipPath id="master_svg0_23_07976"><rect x="0" y="0" width="24" height="24" rx="0"/></clipPath></defs><g clip-path="url(#master_svg0_23_07976)"><g><path d="M5.95,13.386C5.686,13.595,5.411,13.903,5.334,14.288C5.224,14.816,5.312,15.476,5.818,16.003999999999998C6.434,16.631,7.38,16.807000000000002,7.787,16.84C8.887,16.917,10.064,16.367,10.955,15.751C11.307,15.509,11.901,15.014,12.462,14.255C11.186,13.595,9.591,12.869,7.897,12.935C7.028,12.968,6.401,13.144,5.95,13.386ZM22.12,16.301000000000002C22.681,14.981,23,13.529,23,12C23,5.939,18.061,1,12,1C5.939,1,1,5.939,1,12C1,18.061,5.939,23,12,23C15.663,23,18.908,21.196,20.91,18.446C19.018,17.511,15.905,15.96,13.98,15.025C13.067,16.07,11.714,17.115,10.185,17.566C9.228,17.852,8.359,17.962,7.457,17.775C6.555,17.588,5.895,17.17,5.51,16.752000000000002C5.312,16.532,5.092,16.268,4.927,15.938C4.938000000000001,15.96,4.949,15.982,4.949,16.003999999999998Q4.85,15.839,4.784,15.586C4.7509999999999994,15.454,4.718,15.333,4.707,15.201C4.696,15.113,4.696,15.014,4.707,14.926C4.696,14.761,4.707,14.585,4.74,14.409C4.827999999999999,13.969,5.015,13.463,5.499,13.001C6.555,11.967,7.963,11.912,8.7,11.923C9.778,11.934,11.67,12.407,13.254,12.968C13.694,12.033,13.98,11.032,14.156,10.361L7.556,10.361L7.556,9.646L10.944,9.646L10.944,8.216000000000001L6.852,8.216000000000001L6.852,7.49L10.944,7.49L10.944,6.06C10.944,5.862,10.988,5.708,11.296,5.708L12.902,5.708L12.902,7.49L17.357,7.49L17.357,8.205L12.902,8.205L12.902,9.635L16.466,9.635Q16.103,11.626,14.992,13.595C17.467,14.475,20.965,15.839,22.12,16.301000000000002Z" fill="#06B4FD" fill-opacity="1" style="mix-blend-mode:passthrough"/></g></g></svg>