<svg xmlns="http://www.w3.org/2000/svg" xmlns:xlink="http://www.w3.org/1999/xlink" fill="none" version="1.1" width="24" height="24" viewBox="0 0 24 24"><g><g><g><g><path d="M2.7500009804687497,18.6498046875C2.34000098046875,18.6498046875,2.00000135046875,18.3098046875,2.00000135046875,17.8998046875C2.00000135046875,17.8998046875,2.00000135046875,12.1998046875,2.00000135046875,12.1998046875C1.95000138046875,9.489804687500001,2.96000198046875,6.9298046875,4.83999998046875,5.0098046875C6.71999998046875,3.0998046875,9.239999980468749,2.0498046875,11.94999998046875,2.0498046875C17.490029980468748,2.0498046875,22.00002998046875,6.5598046875,22.00002998046875,12.0998046875C22.00002998046875,12.0998046875,22.00002998046875,17.7998046875,22.00002998046875,17.7998046875C22.00002998046875,18.2098046875,21.66002998046875,18.5498046875,21.25002998046875,18.5498046875C20.84002998046875,18.5498046875,20.50002998046875,18.2098046875,20.50002998046875,17.7998046875C20.50002998046875,17.7998046875,20.50002998046875,12.0998046875,20.50002998046875,12.0998046875C20.50002998046875,7.3898046875,16.670029980468748,3.5498046875,11.94999998046875,3.5498046875C9.639999980468751,3.5498046875,7.49999998046875,4.439804687500001,5.909999980468751,6.0598046875C4.30999998046875,7.6898046875,3.45999998046875,9.859804687499999,3.49999998046875,12.1798046875C3.49999998046875,12.1798046875,3.49999998046875,17.8898046875,3.49999998046875,17.8898046875C3.49999998046875,18.3098046875,3.16999998046875,18.6498046875,2.7500009804687497,18.6498046875Z" fill="#009996" fill-opacity="1"/></g><g><path d="M5.9399999999999995,12.4501953125C5.9399999999999995,12.4501953125,5.8100000000000005,12.4501953125,5.8100000000000005,12.4501953125C3.71,12.4501953125,2,14.1601953125,2,16.2601953125C2,16.2601953125,2,18.1401953125,2,18.1401953125C2,20.2401953125,3.71,21.9501953125,5.8100000000000005,21.9501953125C5.8100000000000005,21.9501953125,5.9399999999999995,21.9501953125,5.9399999999999995,21.9501953125C8.04,21.9501953125,9.75,20.2401953125,9.75,18.1401953125C9.75,18.1401953125,9.75,16.2601953125,9.75,16.2601953125C9.75,14.1601953125,8.04,12.4501953125,5.9399999999999995,12.4501953125Z" fill="#009996" fill-opacity="1"/></g><g><path d="M18.19,12.4501953125C18.19,12.4501953125,18.06,12.4501953125,18.06,12.4501953125C15.96,12.4501953125,14.25,14.1601953125,14.25,16.2601953125C14.25,16.2601953125,14.25,18.1401953125,14.25,18.1401953125C14.25,20.2401953125,15.96,21.9501953125,18.06,21.9501953125C18.06,21.9501953125,18.19,21.9501953125,18.19,21.9501953125C20.29,21.9501953125,22,20.2401953125,22,18.1401953125C22,18.1401953125,22,16.2601953125,22,16.2601953125C22,14.1601953125,20.29,12.4501953125,18.19,12.4501953125Z" fill="#009996" fill-opacity="1"/></g><g transform="matrix(-1,-1.2246469849340659e-16,1.2246469849340659e-16,-1,48,48)" style="opacity:0;"></g></g></g></g></svg>