<svg xmlns="http://www.w3.org/2000/svg" xmlns:xlink="http://www.w3.org/1999/xlink" fill="none" version="1.1" width="22" height="22" viewBox="0 0 22 22"><g><g><ellipse cx="11" cy="11" rx="11" ry="11" fill="#27A17C" fill-opacity="1"/></g><g><rect x="5.3854169845581055" y="5.0416669845581055" width="11.229166984558105" height="2.75" rx="0" fill="#FFFFFF" fill-opacity="1"/></g><g><rect x="9.510416984558105" y="7.7916669845581055" width="2.9791667461395264" height="4.0104169845581055" rx="0" fill="#FFFFFF" fill-opacity="1"/></g><g><rect x="9.510416984558105" y="12.489583969116211" width="2.9791667461395264" height="5.958333492279053" rx="0" fill="#FFFFFF" fill-opacity="1"/></g><g><path d="M11.05729,12.71875Q11.23591,12.71875,11.41431,12.71668Q11.59271,12.71461,11.77047,12.71047Q11.94823,12.70634,12.12491,12.70015Q12.30159,12.69396,12.47678,12.68572Q12.65196,12.67749,12.82522,12.66724Q12.99849,12.65699,13.16942,12.64474Q13.34034,12.63249,13.50852,12.61828Q13.67669,12.60406,13.84175,12.58792Q14.00675,12.57177,14.16815,12.55373Q14.32965,12.53569,14.48715,12.5158Q14.64475,12.49591,14.79795,12.474219999999999Q14.95115,12.45253,15.09965,12.42909Q15.24815,12.40565,15.39165,12.380510000000001Q15.53505,12.35538,15.67315,12.32861Q15.81125,12.30184,15.94355,12.27351Q16.07595,12.24517,16.20225,12.21534Q16.32855,12.185500000000001,16.44845,12.15424Q16.56845,12.12298,16.68175,12.09036Q16.79505,12.05775,16.90145,12.023859999999999Q17.007849999999998,11.98997,17.10705,11.954889999999999Q17.20635,11.9198,17.29815,11.883610000000001Q17.38995,11.84742,17.47415,11.81021Q17.55835,11.773,17.63475,11.73486Q17.71115,11.69672,17.77945,11.65774Q17.84785,11.61876,17.90805,11.57903Q17.96815,11.5393,18.020049999999998,11.49893Q18.071849999999998,11.458549999999999,18.11525,11.41762Q18.15865,11.37669,18.193550000000002,11.33531Q18.22835,11.29393,18.254550000000002,11.25219Q18.280749999999998,11.21046,18.29825,11.16847Q18.315849999999998,11.12648,18.324550000000002,11.08433Q18.33335,11.04219,18.33335,11Q18.33335,10.95781,18.324550000000002,10.915659999999999Q18.315849999999998,10.87352,18.29825,10.83153Q18.280749999999998,10.78954,18.254550000000002,10.74781Q18.22835,10.70607,18.193550000000002,10.66469Q18.15865,10.62331,18.11525,10.58238Q18.071849999999998,10.54145,18.020049999999998,10.50107Q17.96815,10.4607,17.90805,10.42097Q17.84785,10.38124,17.77945,10.34226Q17.71115,10.30328,17.63475,10.26514Q17.55835,10.226998,17.47415,10.189787Q17.38995,10.152576,17.29815,10.116386Q17.20635,10.080196,17.10705,10.045114Q17.007849999999998,10.010031,16.90145,9.976142Q16.79505,9.942252,16.68175,9.909636Q16.56845,9.877021,16.44845,9.845758Q16.32855,9.814495,16.20225,9.78466Q16.07595,9.754825,15.94355,9.72649Q15.81125,9.698155,15.67315,9.671388Q15.53505,9.644621,15.39165,9.619487Q15.24815,9.594353,15.09965,9.570912Q14.95115,9.54747,14.79795,9.525779Q14.64475,9.504087,14.48715,9.484198Q14.32965,9.464308,14.16825,9.446268Q14.00675,9.428229,13.84175,9.412082Q13.67669,9.395935,13.50852,9.381721Q13.34034,9.3675067,13.16942,9.3552588Q12.99849,9.3430108,12.82522,9.3327588Q12.65196,9.3225067,12.47678,9.3142753Q12.30159,9.3060439,12.12491,9.2998529Q11.94823,9.2936619,11.77047,9.28952625Q11.59271,9.28539062,11.41431,9.28332031Q11.23591,9.28125,11.05729,9.28125Q10.87868,9.28125,10.70027,9.28332031Q10.52187,9.28539062,10.34412,9.28952625Q10.166360000000001,9.2936619,9.98967,9.2998529Q9.81299,9.3060439,9.63781,9.3142753Q9.462620000000001,9.3225067,9.28936,9.3327588Q9.11609,9.3430108,8.945170000000001,9.3552588Q8.774239999999999,9.3675067,8.606069999999999,9.381721Q8.43789,9.395935,8.272870000000001,9.412082Q8.10785,9.428229,7.94638,9.446268Q7.78492,9.464308,7.62739,9.484198Q7.469860000000001,9.504087,7.316660000000001,9.525779Q7.16345,9.54747,7.01494,9.570912Q6.86642,9.594353,6.7229600000000005,9.619487Q6.57949,9.644621,6.44142,9.671388Q6.30335,9.698155,6.170999999999999,9.72649Q6.0386500000000005,9.754825,5.91235,9.78466Q5.7860499999999995,9.814495,5.6661,9.845758Q5.54615,9.877021,5.43284,9.909636Q5.31952,9.942252,5.21312,9.976142Q5.10672,10.010031,5.00748,10.045114Q4.90825,10.080196,4.81642,10.116386Q4.724595,10.152576,4.640396,10.189787Q4.556196,10.226998,4.479828,10.26514Q4.403459,10.30328,4.335106,10.34226Q4.266752,10.38124,4.206578,10.42097Q4.146404,10.4607,4.0945540000000005,10.50107Q4.042704,10.54145,3.999304,10.58238Q3.955903,10.62331,3.921057,10.66469Q3.886211,10.70607,3.8600022,10.74781Q3.8337936,10.78954,3.8162861,10.83153Q3.7987786,10.87352,3.79001431,10.915659999999999Q3.78125,10.95781,3.78125,11Q3.78125,11.04219,3.79001431,11.084340000000001Q3.7987786,11.12648,3.8162861,11.16847Q3.8337936,11.21046,3.8600022,11.25219Q3.886211,11.29393,3.921057,11.33531Q3.955903,11.37669,3.999304,11.41762Q4.042704,11.458549999999999,4.0945540000000005,11.49893Q4.146404,11.5393,4.206578,11.57903Q4.266752,11.61876,4.335106,11.65774Q4.403459,11.69672,4.479828,11.73486Q4.556196,11.773,4.640396,11.81021Q4.724595,11.84742,4.81642,11.883610000000001Q4.90825,11.9198,5.00748,11.954889999999999Q5.10672,11.98997,5.21312,12.023859999999999Q5.31952,12.05775,5.43284,12.09036Q5.54615,12.12298,5.6661,12.15424Q5.7860499999999995,12.185500000000001,5.91235,12.21534Q6.0386500000000005,12.24517,6.170999999999999,12.27351Q6.30335,12.30184,6.44142,12.32861Q6.57949,12.35538,6.7229600000000005,12.380510000000001Q6.86642,12.40565,7.01494,12.42909Q7.16345,12.45253,7.316660000000001,12.474219999999999Q7.469860000000001,12.49591,7.62739,12.5158Q7.78492,12.53569,7.94638,12.55373Q8.10785,12.57177,8.272870000000001,12.58792Q8.43789,12.60406,8.606069999999999,12.61828Q8.774239999999999,12.63249,8.945170000000001,12.64474Q9.11609,12.65699,9.28936,12.66724Q9.462620000000001,12.67749,9.63781,12.68572Q9.81299,12.69396,9.98967,12.70015Q10.166360000000001,12.70634,10.34412,12.71047Q10.52187,12.71461,10.70027,12.71668Q10.87868,12.71875,11.05729,12.71875ZM10.99996,12.14591Q11.16311,12.14591,11.32606,12.14433Q11.489,12.14274,11.65137,12.139569999999999Q11.81373,12.1364,11.97511,12.13165Q12.13649,12.12691,12.2965,12.12059Q12.45651,12.11428,12.61476,12.10642Q12.77302,12.098559999999999,12.92914,12.08917Q13.08526,12.07978,13.23887,12.06889Q13.39248,12.05799,13.54321,12.04561Q13.69394,12.03323,13.84145,12.019400000000001Q13.98895,12.00557,14.13275,11.99032Q14.27665,11.97507,14.41655,11.95844Q14.55655,11.94181,14.69215,11.92384Q14.82785,11.90587,14.95885,11.8866Q15.08995,11.867329999999999,15.21605,11.84681Q15.34215,11.82629,15.46305,11.80456Q15.58395,11.78284,15.69925,11.75997Q15.81465,11.73709,15.92415,11.71312Q16.033749999999998,11.689160000000001,16.13725,11.66415Q16.24075,11.63915,16.33795,11.61316Q16.43515,11.58718,16.525750000000002,11.56029Q16.61645,11.53339,16.70025,11.50564Q16.78415,11.4779,16.86105,11.44937Q16.93795,11.42084,17.00775,11.3916Q17.07745,11.362359999999999,17.13995,11.33247Q17.20235,11.30259,17.257350000000002,11.27213Q17.31225,11.24167,17.359650000000002,11.21072Q17.406950000000002,11.17976,17.446649999999998,11.14838Q17.48625,11.117,17.518050000000002,11.085280000000001Q17.549950000000003,11.05355,17.57385,11.02155Q17.597749999999998,10.98956,17.61375,10.95736Q17.62975,10.92517,17.63775,10.89286Q17.64575,10.86055,17.64575,10.82821Q17.64575,10.79586,17.63775,10.76355Q17.62975,10.73124,17.61375,10.69905Q17.597749999999998,10.66686,17.57385,10.63486Q17.549950000000003,10.60286,17.518050000000002,10.57113Q17.48625,10.53941,17.446649999999998,10.50803Q17.406950000000002,10.47665,17.359650000000002,10.4457Q17.31225,10.41474,17.257350000000002,10.38428Q17.20235,10.35383,17.13995,10.32394Q17.07745,10.29406,17.00775,10.264813Q16.93795,10.235571,16.86105,10.207043Q16.78415,10.178515,16.70025,10.150769Q16.61645,10.123023,16.525750000000002,10.096127Q16.43515,10.06923,16.33795,10.043248Q16.24075,10.017266,16.13725,9.992261Q16.033749999999998,9.967256,15.92415,9.943287Q15.81465,9.919319,15.69925,9.896446Q15.58395,9.873572,15.46305,9.851849Q15.34215,9.830125,15.21605,9.809604Q15.08995,9.789083,14.95885,9.769813Q14.82785,9.750543,14.69215,9.732572Q14.55655,9.7146,14.41655,9.69797Q14.27665,9.68134,14.13275,9.666091Q13.98885,9.650843,13.84145,9.637012Q13.69394,9.623182,13.54321,9.610803Q13.39248,9.598424,13.23887,9.587526Q13.08526,9.576628,12.92914,9.567238Q12.77302,9.557848,12.61476,9.549988Q12.45651,9.542128,12.2965,9.535817Q12.13649,9.529507,11.97511,9.52476Q11.81372,9.520014,11.65137,9.516843Q11.489,9.513673,11.32606,9.512085Q11.16311,9.510498,10.99996,9.510498Q10.83681,9.510498,10.673860000000001,9.512085Q10.510909999999999,9.513673,10.34855,9.516843Q10.18619,9.520014,10.02481,9.52476Q9.863430000000001,9.529507,9.703420000000001,9.535817Q9.54341,9.542128,9.38515,9.549988Q9.2269,9.557848,9.07078,9.567238Q8.91465,9.576628,8.761040000000001,9.587526Q8.60744,9.598424,8.456710000000001,9.610803Q8.30598,9.623182,8.1585,9.637012Q8.01102,9.650843,7.86714,9.666091Q7.72325,9.68134,7.5833200000000005,9.69797Q7.443379999999999,9.7146,7.307729999999999,9.732572Q7.172079999999999,9.750543,7.041040000000001,9.769813Q6.91,9.789083,6.7838899999999995,9.809604Q6.65777,9.830125,6.53689,9.851849Q6.41601,9.873572,6.30065,9.896446Q6.1852800000000006,9.919319,6.0757200000000005,9.943287Q5.96616,9.967256,5.86266,9.992261Q5.75916,10.017266,5.66198,10.043248Q5.56479,10.06923,5.47415,10.096127Q5.38351,10.123023,5.29964,10.150769Q5.2157599999999995,10.178515,5.13886,10.207043Q5.0619499999999995,10.235571,4.9922,10.264813Q4.92244,10.29406,4.86001,10.32394Q4.79758,10.35383,4.742614,10.38428Q4.687652,10.41474,4.640293,10.4457Q4.592934,10.47665,4.553293,10.50803Q4.513652,10.53941,4.481824,10.57113Q4.449995,10.60286,4.426057,10.63486Q4.402119,10.66686,4.386127,10.69905Q4.3701360000000005,10.73124,4.362131,10.76355Q4.354126,10.79586,4.354126,10.82821Q4.354126,10.86055,4.362131,10.89286Q4.3701360000000005,10.92517,4.386127,10.95736Q4.402119,10.98956,4.426057,11.02155Q4.449995,11.05355,4.481824,11.085280000000001Q4.513652,11.117,4.553293,11.14838Q4.592934,11.17976,4.640293,11.21072Q4.687652,11.24167,4.742614,11.27213Q4.79758,11.30259,4.86001,11.33247Q4.92244,11.362359999999999,4.9922,11.3916Q5.0619499999999995,11.42084,5.13886,11.44937Q5.2157599999999995,11.4779,5.29964,11.50564Q5.38351,11.53339,5.47415,11.56029Q5.56479,11.58718,5.66198,11.61316Q5.75916,11.63915,5.86266,11.66415Q5.96616,11.689160000000001,6.0757200000000005,11.71312Q6.1852800000000006,11.73709,6.30065,11.75997Q6.41601,11.78284,6.53689,11.80456Q6.65777,11.82629,6.7838899999999995,11.84681Q6.91,11.867329999999999,7.041040000000001,11.8866Q7.172079999999999,11.90587,7.307729999999999,11.92384Q7.443379999999999,11.94181,7.5833200000000005,11.95844Q7.72325,11.97507,7.86714,11.99032Q8.01102,12.00557,8.1585,12.019400000000001Q8.30598,12.03323,8.456710000000001,12.04561Q8.60744,12.05799,8.761040000000001,12.06889Q8.91465,12.07978,9.07078,12.08917Q9.2269,12.098559999999999,9.38515,12.10642Q9.54341,12.11428,9.703420000000001,12.1206Q9.863430000000001,12.12691,10.02481,12.13165Q10.18619,12.1364,10.34855,12.139569999999999Q10.510909999999999,12.14274,10.673860000000001,12.14433Q10.83681,12.14591,10.99996,12.14591Z" fill-rule="evenodd" fill="#FFFFFF" fill-opacity="1"/></g></g></svg>