<svg width="16" height="16" viewBox="0 0 16 16" fill="none" xmlns="http://www.w3.org/2000/svg">
<path fill-rule="evenodd" clip-rule="evenodd" d="M5.99414 3.98931L10.595 1.33301L12.1325 3.99597L5.99414 3.98931Z" stroke="#757575" stroke-width="0.666667" stroke-linecap="round" stroke-linejoin="round"/>
<path d="M1.3335 4.66667C1.3335 4.29847 1.63197 4 2.00016 4H14.0002C14.3684 4 14.6668 4.29847 14.6668 4.66667V14C14.6668 14.3682 14.3684 14.6667 14.0002 14.6667H2.00016C1.63197 14.6667 1.3335 14.3682 1.3335 14V4.66667Z" stroke="#757575" stroke-width="0.666667" stroke-linejoin="round"/>
<path d="M11.75 11.0003H14.6667V7.66699H11.75C10.7835 7.66699 10 8.41319 10 9.33366C10 10.2541 10.7835 11.0003 11.75 11.0003Z" stroke="#757575" stroke-width="0.666667" stroke-linejoin="round"/>
<path d="M14.6665 5.5V13.5" stroke="#757575" stroke-width="0.666667" stroke-linecap="round"/>
</svg>
