<svg xmlns="http://www.w3.org/2000/svg" xmlns:xlink="http://www.w3.org/1999/xlink" fill="none" version="1.1" width="74" height="74" viewBox="0 0 74 74"><defs><clipPath id="master_svg0_23_3468"><rect x="26" y="33" width="22" height="22" rx="0"/></clipPath></defs><g><g><rect x="0" y="0" width="74" height="74" rx="13" fill="#FFFFFF" fill-opacity="1"/></g><g><g><g><path d="M17.425804,54.6065C17.196264,57.514,19.49375,60,22.41029,60L51.5897,60C54.5063,60,56.8037,57.514,56.5742,54.6065L54.3637,26.60649C54.1584,24.00577,51.988,22,49.3792,22L24.620820000000002,22C22.01201,22,19.84165,24.00577,19.63633,26.60649L17.425804,54.6065Z" fill="#181818" fill-opacity="1"/></g><g><ellipse cx="30" cy="27" rx="2" ry="2" fill="#FFFFFF" fill-opacity="1"/></g><g><ellipse cx="44" cy="27" rx="2" ry="2" fill="#FFFFFF" fill-opacity="1"/></g><g><path d="M30.28249,16.28249Q27.5,19.06497,27.5,23L30.5,23Q30.5,20.30761,32.40381,18.40381Q34.30761,16.5,37,16.5Q39.6924,16.5,41.596199999999996,18.40381Q43.5,20.30761,43.5,23L46.5,23Q46.5,19.06497,43.7175,16.28249Q40.935,13.5,37,13.5Q33.06497,13.5,30.28249,16.28249Z" fill-rule="evenodd" fill="#181818" fill-opacity="1"/></g></g><g clip-path="url(#master_svg0_23_3468)"><g><path d="M41.78564453125,41.02900390625L41.28564453125,40.72900390625L41.28564453125,40.77900390625L41.78564453125,41.02900390625Z" fill="#FF0D76" fill-opacity="1" style="mix-blend-mode:passthrough"/></g><g><path d="M37.3814662109375,33.44L40.4114662109375,33.44C40.4114662109375,33.3,40.4114662109375,33.15,40.3514662109375,33L36.5514662109375,33L36.5514662109375,47.480000000000004C36.561466210937496,47.57,36.561466210937496,47.65,36.5514662109375,47.74C36.3615162109375,48.58,35.8215162109375,49.31,35.0515162109375,49.739999999999995C34.2915162109375,50.17,33.3715162109375,50.269999999999996,32.5215162109375,50.010000000000005C33.3715162109375,50.64,34.4915162109375,50.79,35.4915162109375,50.42C36.4815162109375,50.05,37.2114662109375,49.2,37.4114662109375,48.18L37.3814662109375,48.18C37.4015662109375,48.0945,37.4015662109375,48.0055,37.3814662109375,47.92L37.3814662109375,33.44ZM31.4915162109375,40.593C29.6515162109375,41.123,28.1115162109375,42.373,27.2515122109375,44.043C26.3815122109375,45.703,26.2615122109375,47.643,26.9215122109375,49.403C27.6065962109375,51.1683,28.9721962109375,52.5844,30.7115162109375,53.333C29.3593862109375,52.5342,28.3137662109375,51.305499999999995,27.7415162109375,49.843C27.4315122109375,49.022999999999996,27.2815122109375,48.143,27.3315122109375,47.272999999999996C27.4415122109375,44.363,29.4515162109375,41.853,32.3215162109375,41.033C32.7115162109375,40.913,33.1015162109375,40.823,33.5015162109375,40.783L33.5015162109375,40.323C32.8215162109375,40.313,32.141516210937496,40.403,31.4915162109375,40.593ZM43.7434662109375,37.736C44.3234662109375,38.096000000000004,44.9634662109375,38.336,45.643466210937504,38.446L45.643466210937504,38.106C44.9934662109375,38.106,44.3434662109375,37.976,43.7434662109375,37.736Z" fill="#47F8F8" fill-opacity="1" style="mix-blend-mode:passthrough"/></g><g><path d="M43.7465115234375,37.73998596191406C43.4165115234375,37.529985961914065,43.106511523437504,37.28998596191406,42.8265115234375,37.029985961914065C41.8748115234375,36.080535961914066,41.3084115234375,34.81234596191406,41.2365115234375,33.46998596191406L40.4365115234375,33.46998596191406C40.5665115234375,34.64998596191406,41.106511523437504,35.749985961914064,41.9765115234375,36.57998596191406C42.4765115234375,37.07998596191406,43.0765115234375,37.46998596191406,43.7465115234375,37.73998596191406ZM45.6505115234375,41.86798596191406C44.3105115234375,41.88798596191406,42.9905115234375,41.59798596191406,41.7905115234375,41.03798596191406C43.2105115234375,41.877985961914064,44.8405115234375,42.31798596191406,46.500511523437495,42.31798596191406L46.500511523437495,38.547985961914065C46.2105115234375,38.53798596191406,45.9305115234375,38.517985961914064,45.6505115234375,38.46798596191406L45.6505115234375,41.86798596191406ZM40.4305115234375,47.10798596191406C40.4205115234375,50.42798596191406,37.9505115234375,53.25798596191406,34.5805115234375,53.80798596191406C33.2605115234375,54.017985961914064,31.9205115234375,53.84798596191406,30.7005115234375,53.32798596191407C32.1198715234375,54.18148596191406,33.7947115234375,54.507285961914064,35.4305115234375,54.24798596191406C38.8005115234375,53.697985961914064,41.2805115234375,50.85798596191407,41.2905115234375,47.53798596191406L41.2905115234375,40.77798596191406C41.0005115234375,40.627985961914064,40.7105115234375,40.46798596191406,40.4305115234375,40.28798596191406L40.4305115234375,47.10798596191406ZM30.3135122234375,46.72098596191406C30.1635125234375,48.050985961914066,30.9035125234375,49.32098596191406,32.1435115234375,49.880985961914064C32.2535115234375,49.940985961914066,32.3735115234375,49.98098596191406,32.5035115234375,50.020985961914064C31.4620415234375,49.33098596191407,30.9531725234375,48.070685961914066,31.2235125234375,46.85098596191406C31.5035115234375,45.65098596191406,32.5135115234375,44.72098596191406,33.7635115234375,44.520985961914064C33.9535115234375,44.520985961914064,34.1435115234375,44.47098596191406,34.3335115234375,44.440985961914066L34.3335115234375,40.74098596191406C34.0535115234375,40.74098596191406,33.7635115234375,40.75098596191406,33.4835115234375,40.78098596191406L33.4835115234375,44.00098596191406C33.2935115234375,44.020985961914064,33.1035115234375,44.03098596191406,32.9135115234375,44.07098596191406C31.5335115234375,44.29098596191406,30.4735135234375,45.37098596191406,30.3135122234375,46.72098596191406Z" fill="#FF0D76" fill-opacity="1" style="mix-blend-mode:passthrough"/></g><g><path d="M40.440674609375,33.462005615234375L37.420674609375,33.462005615234375L37.420674609375,47.94200561523438C37.430674609375004,48.02200561523438,37.430674609375004,48.112005615234374,37.420674609375,48.20200561523438C37.220654609375,49.22200561523437,36.490654609375,50.072005615234374,35.500654609375,50.44200561523438C34.500654609375,50.812005615234376,33.380654609375,50.66200561523438,32.530654609375,50.032005615234375C32.400654609374996,50.002005615234374,32.280654609375,49.95200561523437,32.170654609375,49.892005615234375C30.910654609375,49.34200561523438,30.160654609375,48.062005615234376,30.310654609375,46.72200561523437C30.470654609375,45.37200561523437,31.530654609375,44.29200561523437,32.910654609375,44.08200561523437C33.100654609375,44.04200561523437,33.290654609375,44.032005615234375,33.480654609375,44.002005615234374L33.480654609375,40.782005615234375C33.090654609375,40.822005615234374,32.700654609375,40.90200561523437,32.320654609375,41.01200561523437C29.450654609375,41.83200561523437,27.430655609375,44.352005615234376,27.330655039375,47.27200561523438C27.290655109375,48.142005615234375,27.430654609375,49.02200561523438,27.740654609375,49.84200561523437C28.300129609375,51.29990561523438,29.331614609375,52.528605615234376,30.670654609375,53.33200561523438C31.890654609374998,53.852005615234376,33.230654609375,54.01200561523437,34.550654609375,53.80200561523438C37.920674609375,53.252005615234374,40.390674609375,50.422005615234376,40.400674609375,47.102005615234376L40.400674609375,40.322005615234374C40.690674609375,40.502005615234374,40.970674609374996,40.66200561523438,41.260674609375,40.812005615234376L41.260674609375,40.76200561523437L41.760674609375,41.062005615234376C42.970674609374996,41.62200561523437,44.300674609375,41.892005615234375,45.640674609375,41.862005615234374L45.640674609375,38.47200561523437C44.970674609374996,38.362005615234374,44.320674609375004,38.12200561523437,43.740674609375,37.752005615234374C43.080674609375,37.492005615234376,42.480674609375,37.102005615234376,41.970674609374996,36.602005615234376C41.104874609375,35.769605615234376,40.562674609375,34.65685561523438,40.440674609375,33.462005615234375Z" fill="#FFFFFF" fill-opacity="1" style="mix-blend-mode:passthrough"/></g></g></g></g></svg>