<svg xmlns="http://www.w3.org/2000/svg" xmlns:xlink="http://www.w3.org/1999/xlink" fill="none" version="1.1" width="22" height="22" viewBox="0 0 22 22"><defs><clipPath id="master_svg0_27_8446"><rect x="0" y="0" width="22" height="22" rx="0"/></clipPath></defs><g clip-path="url(#master_svg0_27_8446)"><g><path d="M8.2999853515625,8.27999755859375Q8.2999853515625,8.35091155859375,8.286155351562499,8.42046255859375Q8.2723153515625,8.49001355859375,8.2451753515625,8.55552955859375Q8.2180453515625,8.62104755859375,8.1786453515625,8.68000755859375Q8.1392453515625,8.73896755859375,8.0891053515625,8.78911755859375Q8.0389553515625,8.83925755859375,7.9799953515625,8.87865755859375Q7.9210353515625,8.91805755859375,7.8555173515625,8.94518755859375Q7.7900013515625,8.97232755859375,7.7204503515625,8.986167558593749Q7.6508993515625,8.99999755859375,7.5799853515625,8.99999755859375Q7.5090713515625005,8.99999755859375,7.4395203515625,8.986167558593749Q7.3699693515625,8.97232755859375,7.3044533515625,8.94518755859375Q7.2389373515625,8.91805755859375,7.1799743515625,8.87865755859375Q7.1210123515625,8.83925755859375,7.0708683515625,8.78911755859375Q7.0207243515625,8.73896755859375,6.9813273515625,8.68000755859375Q6.9419296515625,8.62104755859375,6.9147920515625,8.55552955859375Q6.8876545515625,8.49001355859375,6.8738199515625,8.42046255859375Q6.8599853515625,8.35091155859375,6.8599853515625,8.27999755859375Q6.8599853515625,8.20908355859375,6.8738199515625,8.13953255859375Q6.8876545515625,8.06998155859375,6.9147920515625,8.00446555859375Q6.9419296515625,7.93894955859375,6.9813273515625,7.87998655859375Q7.0207243515625,7.82102455859375,7.0708683515625,7.77088055859375Q7.1210123515625,7.72073655859375,7.1799743515625,7.68133955859375Q7.2389373515625,7.64194185859375,7.3044533515625,7.61480425859375Q7.3699693515625,7.58766675859375,7.4395203515625,7.57383215859375Q7.5090713515625005,7.55999755859375,7.5799853515625,7.55999755859375Q7.6508993515625,7.55999755859375,7.7204503515625,7.57383215859375Q7.7900013515625,7.58766675859375,7.8555173515625,7.61480425859375Q7.9210353515625,7.64194185859375,7.9799953515625,7.68133955859375Q8.0389553515625,7.72073655859375,8.0891053515625,7.77088055859375Q8.1392453515625,7.82102455859375,8.1786453515625,7.87998655859375Q8.2180453515625,7.93894955859375,8.2451753515625,8.00446555859375Q8.2723153515625,8.06998155859375,8.286155351562499,8.13953255859375Q8.2999853515625,8.20908355859375,8.2999853515625,8.27999755859375Z" fill="#50B674" fill-opacity="1" style="mix-blend-mode:passthrough"/></g><g><path d="M10.0799567103385,8.2600380625C10.0795685646875,8.6579590625,10.4020370546875,8.9807390625,10.7999560546875,8.9807390625C11.1978760546875,8.9807390625,11.5203460546875,8.6579590625,11.5199560546875,8.2600380625C11.5199560546875,7.8623940625,11.1976060546875,7.5400390625,10.7999560546875,7.5400390625C10.4023110546875,7.5400390625,10.0799560546875,7.8623940625,10.0799567103385,8.2600380625Z" fill="#50B674" fill-opacity="1" style="mix-blend-mode:passthrough"/></g><g><path d="M12.8800048828125,11.48004250390625Q12.8800048828125,11.52928750390625,12.8703978828125,11.57758750390625Q12.860789882812501,11.62588650390625,12.8419448828125,11.67138350390625Q12.8230988828125,11.71688050390625,12.7957398828125,11.75782750390625Q12.768380882812501,11.79877350390625,12.7335588828125,11.83359550390625Q12.6987368828125,11.868417503906251,12.6577898828125,11.89577750390625Q12.6168438828125,11.92313650390625,12.5713468828125,11.94198250390625Q12.5258498828125,11.96082750390625,12.4775498828125,11.97043550390625Q12.4292508828125,11.98004150390625,12.3800048828125,11.98004150390625Q12.3307588828125,11.98004150390625,12.2824598828125,11.97043550390625Q12.2341598828125,11.96082750390625,12.1886628828125,11.94198250390625Q12.1431658828125,11.92313650390625,12.1022198828125,11.89577750390625Q12.0612738828125,11.868417503906251,12.0264518828125,11.83359550390625Q11.9916298828125,11.79877350390625,11.9642700828125,11.75782750390625Q11.9369106828125,11.71688050390625,11.9180650828125,11.67138350390625Q11.8992195828125,11.62588650390625,11.8896122428125,11.57758750390625Q11.8800048828125,11.52928750390625,11.8800048828125,11.48004250390625Q11.8800048828125,11.430796503906251,11.8896122428125,11.38249650390625Q11.8992195828125,11.33419750390625,11.9180650828125,11.28870050390625Q11.9369106828125,11.24320250390625,11.9642700828125,11.20225650390625Q11.9916298828125,11.16131050390625,12.0264518828125,11.12648850390625Q12.0612738828125,11.09166650390625,12.1022198828125,11.06430680390625Q12.1431658828125,11.03694730390625,12.1886628828125,11.01810180390625Q12.2341598828125,10.99925620390625,12.2824598828125,10.98964887390625Q12.3307588828125,10.98004150390625,12.3800048828125,10.98004150390625Q12.4292508828125,10.98004150390625,12.4775498828125,10.98964887390625Q12.5258498828125,10.99925620390625,12.5713468828125,11.01810180390625Q12.6168438828125,11.03694730390625,12.6577898828125,11.06430680390625Q12.6987368828125,11.09166650390625,12.7335588828125,11.12648850390625Q12.768380882812501,11.16131050390625,12.7957398828125,11.20225650390625Q12.8230988828125,11.24320250390625,12.8419448828125,11.28870050390625Q12.860789882812501,11.33419750390625,12.8703978828125,11.38249650390625Q12.8800048828125,11.430796503906251,12.8800048828125,11.48004250390625Z" fill="#50B674" fill-opacity="1" style="mix-blend-mode:passthrough"/></g><g><path d="M15.4200439453125,11.51995949609375Q15.4200439453125,11.56920449609375,15.4104369453125,11.61750449609375Q15.400828945312501,11.66580349609375,15.3819839453125,11.71130049609375Q15.3631379453125,11.75679749609375,15.3357789453125,11.79774449609375Q15.308419945312501,11.83869049609375,15.2735979453125,11.87351249609375Q15.2387759453125,11.908334496093751,15.1978289453125,11.93569449609375Q15.1568829453125,11.96305349609375,15.1113859453125,11.98189949609375Q15.0658889453125,12.00074449609375,15.0175889453125,12.01035249609375Q14.9692899453125,12.01995849609375,14.9200439453125,12.01995849609375Q14.8707979453125,12.01995849609375,14.8224989453125,12.01035249609375Q14.7741989453125,12.00074449609375,14.7287019453125,11.98189949609375Q14.6832049453125,11.96305349609375,14.6422589453125,11.93569449609375Q14.6013129453125,11.908334496093751,14.5664909453125,11.87351249609375Q14.5316689453125,11.83869049609375,14.5043091453125,11.79774449609375Q14.4769497453125,11.75679749609375,14.4581041453125,11.71130049609375Q14.4392586453125,11.66580349609375,14.4296513053125,11.61750449609375Q14.4200439453125,11.56920449609375,14.4200439453125,11.51995949609375Q14.4200439453125,11.470713496093751,14.4296513053125,11.42241349609375Q14.4392586453125,11.37411449609375,14.4581041453125,11.32861749609375Q14.4769497453125,11.28311949609375,14.5043091453125,11.24217349609375Q14.5316689453125,11.20122749609375,14.5664909453125,11.16640549609375Q14.6013129453125,11.13158349609375,14.6422589453125,11.10422379609375Q14.6832049453125,11.07686429609375,14.7287019453125,11.05801879609375Q14.7741989453125,11.03917319609375,14.8224989453125,11.02956586609375Q14.8707979453125,11.01995849609375,14.9200439453125,11.01995849609375Q14.9692899453125,11.01995849609375,15.0175889453125,11.02956586609375Q15.0658889453125,11.03917319609375,15.1113859453125,11.05801879609375Q15.1568829453125,11.07686429609375,15.1978289453125,11.10422379609375Q15.2387759453125,11.13158349609375,15.2735979453125,11.16640549609375Q15.308419945312501,11.20122749609375,15.3357789453125,11.24217349609375Q15.3631379453125,11.28311949609375,15.3819839453125,11.32861749609375Q15.400828945312501,11.37411449609375,15.4104369453125,11.42241349609375Q15.4200439453125,11.470713496093751,15.4200439453125,11.51995949609375Z" fill="#50B674" fill-opacity="1" style="mix-blend-mode:passthrough"/></g><g><path d="M11,0C4.92,0,0,4.92,0,11C0,17.08,4.92,22,11,22C17.08,22,22,17.08,22,11C22,4.92,17.08,0,11,0ZM9.12,13.54C8.54,13.54,8.08,13.42,7.5,13.3L5.88,14.1L6.34,12.72C5.18,11.92,4.5,10.88,4.5,9.6C4.5,7.4,6.58,5.68,9.12,5.68C11.38,5.68,13.38,7.06,13.78,8.92C13.64,8.9,13.48,8.9,13.34,8.9C11.14,8.9,9.42,10.54,9.42,12.56C9.42,12.9,9.48,13.22,9.56,13.52C9.4,13.52,9.26,13.54,9.12,13.54ZM15.88,15.16L16.22,16.32L14.96,15.62C14.5,15.74,14.04,15.86,13.58,15.86C11.38,15.86,9.66,14.36,9.66,12.52C9.66,10.68,11.38,9.18,13.58,9.18C15.66,9.18,17.5,10.68,17.5,12.52C17.5,13.54,16.82,14.46,15.88,15.16Z" fill="#50B674" fill-opacity="1" style="mix-blend-mode:passthrough"/></g></g></svg>